<?xml version="1.0" encoding="utf-8"?>
<!-- Generator: Adobe Illustrator 25.3.1, SVG Export Plug-In . SVG Version: 6.00 Build 0)  -->
<svg version="1.1" id="Layer_1" xmlns="http://www.w3.org/2000/svg" xmlns:xlink="http://www.w3.org/1999/xlink" x="0px" y="0px"
	 viewBox="0 0 440 115" style="enable-background:new 0 0 440 115;" xml:space="preserve">
<style type="text/css">
	.st0{fill:#FFF200;}
	.st1{fill:#FFFFFF;}
</style>
<g>
	<path class="st0" d="M152.6,38.6l-10.1-20.5l-1.8,20.5h-11.1l3.2-36.9h12.9l9.2,19.5l1.7-19.5h11.1l-3.2,36.9H152.6z"/>
	<path class="st0" d="M185.6,38.6c0,0,0.4-5,0.4-5.1c-1.4,3.2-4.7,5.7-9.5,5.7c-5.3,0-8.3-2.3-7.8-7.8l1.7-20h11.7l-1.5,17.1
		c-0.2,2,0.8,3,2.4,3s3.1-1,3.3-3.3l1.5-16.8h11.8l-2.4,27.3L185.6,38.6z"/>
	<path class="st0" d="M228.2,26.7h-15.7c-0.3,4.3,0.1,6.4,3.2,6.4c2.2,0,3.2-1,3.6-2.9c0.1-0.5,0.1-1.1,0.1-1.6l9,0.4
		c0.1,0.8,0.1,1.6,0,2.4c-0.4,4.2-3.9,8-13.7,8c-10.3,0-15.1-4.7-14.3-13.3c1-11.2,8.2-15.4,16.9-15.4c8.5,0,12.5,4.2,11.8,11.3
		C229.1,23.6,228.7,25.1,228.2,26.7z M216.5,16.7c-2.1,0-3.1,1.5-3.7,5.7h5.5c0.2-0.5,0.3-1.1,0.3-1.7
		C218.9,18,218.2,16.7,216.5,16.7z"/>
	<path class="st0" d="M243,39.2c-8.6,0-13.3-2.6-13-7.3c0-0.6,0.2-1.2,0.3-1.7l8.4-0.8c0,0.2,0,0.3-0.1,0.5
		c-0.2,2.2,1.4,3.5,4.6,3.5c2.5,0,3.5-0.9,3.6-1.9c0.1-1.6-1.1-2.4-4.1-3.2c-0.8-0.2-1.6-0.4-2.6-0.6c-6.6-1.4-9.1-3.8-8.6-8.9
		c0.5-4.5,4.9-8.3,14.4-8.3c7.8,0,11.6,2.8,11.6,7c0,0.4,0,0.8-0.1,1.2l-8.1,0.9c0-0.1,0-0.3-0.1-0.4c-0.2-1.5-1.2-3-3.9-3
		c-2.4,0-3.1,0.8-3.2,1.7s1.1,1.8,4.3,2.5c0.7,0.1,1.6,0.4,2.6,0.6c7.3,1.4,9.2,4.6,8.8,9.4C257.2,35.6,253.1,39.2,243,39.2z"/>
	<path class="st0" d="M269.8,39.2c-6,0-9.3-2.2-8.8-8l1.2-13.9h-3.8l0.5-5.9h3.9l0.7-8h11.7l-0.7,8h6.1l-0.5,5.9h-6.1L273,30
		c-0.2,2.3,0.5,3.4,2.5,3.4c1-0.1,2.1-0.3,3-0.8l0.9,3.7C276.6,38.3,273.2,39.3,269.8,39.2z"/>
	<path class="st0" d="M307.4,24.1l-9.7,0.7c0.4-1.3,0.8-2.6,1-4c0.1-1.7,0-2.9-1.7-2.9c-2.5,0-3.2,2.5-3.6,6.2l-1.3,14.6h-11.8
		l2.4-27.3h11.7c0,0-0.4,4.3-0.4,4.9c1.2-3.4,4.4-5.6,8-5.6c5.4,0,7,3.4,6.5,8C308.5,20.6,308.1,22.4,307.4,24.1z"/>
	<path class="st0" d="M322.2,39.4c-9.4,0-14.6-4.6-13.8-14c0.9-10,7.4-14.8,16.3-14.8s14.6,4.7,13.7,14.8
		C337.6,34.9,331.6,39.4,322.2,39.4z M324.2,16.8c-2.1,0-3.1,2.2-3.6,8.2s0.1,8.1,2.2,8.1s3.2-2.1,3.7-8.1S326.2,16.8,324.2,16.8
		L324.2,16.8z"/>
	<path class="st1" d="M379.9,78.5c-1.3,14.7-4.2,19.7-9,19.7c-5.1,0-6.6-5.4-5.4-19.7c1.3-14.6,3.8-20,8.9-20S381.1,63.5,379.9,78.5
		 M409,79.2c2.1-24.4-11.6-35.8-33.4-35.8c-21.6,0-37.4,11.4-39.5,35.8c-2,23,10.7,34.1,33.4,34.1S407,102.5,409,79.2 M329.1,111.5
		l5.8-66.3h-28.6l-5.8,66.3H329.1z M303.2,63.1c1-11.2-2.8-19.5-15.9-19.5c-8.8,0-16,4.9-19.5,13.5c0.1-1.5,1-11.9,1-11.9h-28.4
		l-5.8,66.3h28.6l3.1-35.5c0.8-9.1,2.5-15,8.7-15c4,0,4.4,3,4,7.1c-0.3,3.8-2.2,8.9-2.4,9.8l23.5-1.6
		C301.8,72.1,302.9,67.6,303.2,63.1 M198.3,92.7c-0.3,3.2-2.6,6.2-7.2,6.2c-3.6,0-5.5-2.3-5.1-6.9c0.6-6.5,3.4-8.6,7.5-9.8
		c2.6-0.8,4.4-1.2,5.9-2.1L198.3,92.7z M233.4,107.8l-0.1-8.5c-0.9,0.3-1.9,0.4-2.8,0.5c-2.4,0-4.2-1-3.9-4.3l2.8-31.6
		c1.3-14.7-8.5-20.4-30.9-20.4c-22.6,0-33.1,6.2-34.1,17.4c-0.4,5,1,7.6,2,9.2l23.9-2.6c-0.7-1-1-2.4-0.7-4.8c0.3-3.7,2.2-5.6,6-5.6
		c4.3,0,5.7,2.9,5.3,7.2l-0.4,4.8c-1.9,2.1-6.3,2.6-13.1,3.8c-21.4,4-28.9,9.3-30,21.8c-1.1,12.7,7.3,18.4,20.3,18.4
		c12.5,0,18.8-4.2,23.1-10.7c0.7,5.6,4.8,10,14.8,10C224.9,112.4,229.9,109.8,233.4,107.8 M151.9,111.4l5.8-66.3h-28.6l-5.8,66.3
		H151.9z M89,67.2c-1.4,17.6-7.3,23.7-15.1,23.7H64L68.3,42h9.9C86.2,42,90.7,47.8,89,67.2 M121.8,67.8
		c2.9-32.7-12.2-45.8-38.7-45.8H38.5l-7.8,89.6H76C101.9,111.5,119.2,98,121.8,67.8"/>
</g>
</svg>
